<mxfile host="app.diagrams.net" agent="Mozilla/5.0 (Windows NT 10.0; Win64; x64; rv:128.0) Gecko/20100101 Firefox/128.0" version="24.7.5">
  <diagram id="R2lEEEUBdFMjLlhIrx00" name="Page-1">
    <mxGraphModel dx="2924" dy="1106" grid="1" gridSize="10" guides="1" tooltips="1" connect="1" arrows="1" fold="1" page="1" pageScale="1" pageWidth="850" pageHeight="1100" math="0" shadow="0" extFonts="Permanent Marker^https://fonts.googleapis.com/css?family=Permanent+Marker">
      <root>
        <mxCell id="0" />
        <mxCell id="1" parent="0" />
        <mxCell id="8vloyq_Telz0-nq0sPVS-1" value="generic_plants" style="whiteSpace=wrap;html=1;align=center;fontSize=12;" parent="1" vertex="1">
          <mxGeometry x="180" y="460" width="100" height="40" as="geometry" />
        </mxCell>
        <mxCell id="GQBnyUPq5ZIcI_zQH5y9-13" style="edgeStyle=none;shape=connector;rounded=0;orthogonalLoop=1;jettySize=auto;html=1;exitX=0.75;exitY=0;exitDx=0;exitDy=0;entryX=0;entryY=1;entryDx=0;entryDy=0;strokeColor=default;align=center;verticalAlign=middle;fontFamily=Helvetica;fontSize=11;fontColor=default;labelBackgroundColor=default;endArrow=none;endFill=0;" edge="1" parent="1" source="8vloyq_Telz0-nq0sPVS-2" target="GQBnyUPq5ZIcI_zQH5y9-12">
          <mxGeometry relative="1" as="geometry" />
        </mxCell>
        <mxCell id="8vloyq_Telz0-nq0sPVS-2" value="actual_plants" style="whiteSpace=wrap;html=1;align=center;fontSize=12;" parent="1" vertex="1">
          <mxGeometry x="540" y="460" width="100" height="40" as="geometry" />
        </mxCell>
        <mxCell id="8vloyq_Telz0-nq0sPVS-4" style="rounded=0;orthogonalLoop=1;jettySize=auto;html=1;exitX=1;exitY=1;exitDx=0;exitDy=0;entryX=0.25;entryY=0;entryDx=0;entryDy=0;endArrow=none;endFill=0;fontSize=12;" parent="1" source="8vloyq_Telz0-nq0sPVS-3" target="8vloyq_Telz0-nq0sPVS-1" edge="1">
          <mxGeometry relative="1" as="geometry" />
        </mxCell>
        <mxCell id="8vloyq_Telz0-nq0sPVS-3" value="habit" style="ellipse;shape=doubleEllipse;margin=3;whiteSpace=wrap;html=1;align=center;fontSize=12;" parent="1" vertex="1">
          <mxGeometry x="90" y="360" width="100" height="40" as="geometry" />
        </mxCell>
        <mxCell id="8vloyq_Telz0-nq0sPVS-7" style="edgeStyle=none;shape=connector;rounded=0;orthogonalLoop=1;jettySize=auto;html=1;exitX=1;exitY=0.5;exitDx=0;exitDy=0;entryX=0;entryY=0.5;entryDx=0;entryDy=0;strokeColor=default;align=center;verticalAlign=middle;fontFamily=Helvetica;fontSize=12;fontColor=default;labelBackgroundColor=default;endArrow=none;endFill=0;" parent="1" source="8vloyq_Telz0-nq0sPVS-6" target="8vloyq_Telz0-nq0sPVS-1" edge="1">
          <mxGeometry relative="1" as="geometry" />
        </mxCell>
        <mxCell id="8vloyq_Telz0-nq0sPVS-6" value="genus" style="ellipse;whiteSpace=wrap;html=1;align=center;fontStyle=4;fontFamily=Helvetica;fontSize=12;fontColor=default;labelBackgroundColor=default;" parent="1" vertex="1">
          <mxGeometry x="20" y="480" width="100" height="40" as="geometry" />
        </mxCell>
        <mxCell id="8vloyq_Telz0-nq0sPVS-9" style="edgeStyle=none;shape=connector;rounded=0;orthogonalLoop=1;jettySize=auto;html=1;exitX=1;exitY=0;exitDx=0;exitDy=0;entryX=0;entryY=1;entryDx=0;entryDy=0;strokeColor=default;align=center;verticalAlign=middle;fontFamily=Helvetica;fontSize=12;fontColor=default;labelBackgroundColor=default;endArrow=none;endFill=0;" parent="1" source="8vloyq_Telz0-nq0sPVS-8" target="8vloyq_Telz0-nq0sPVS-1" edge="1">
          <mxGeometry relative="1" as="geometry" />
        </mxCell>
        <mxCell id="8vloyq_Telz0-nq0sPVS-8" value="species" style="ellipse;whiteSpace=wrap;html=1;align=center;fontStyle=4;fontFamily=Helvetica;fontSize=12;fontColor=default;labelBackgroundColor=default;" parent="1" vertex="1">
          <mxGeometry x="20" y="530" width="100" height="40" as="geometry" />
        </mxCell>
        <mxCell id="8vloyq_Telz0-nq0sPVS-10" value="images" style="whiteSpace=wrap;html=1;align=center;fontFamily=Helvetica;fontSize=12;fontColor=default;labelBackgroundColor=default;" parent="1" vertex="1">
          <mxGeometry x="180" y="920" width="100" height="40" as="geometry" />
        </mxCell>
        <mxCell id="8vloyq_Telz0-nq0sPVS-12" style="edgeStyle=none;shape=connector;rounded=0;orthogonalLoop=1;jettySize=auto;html=1;exitX=1;exitY=0;exitDx=0;exitDy=0;strokeColor=default;align=center;verticalAlign=middle;fontFamily=Helvetica;fontSize=12;fontColor=default;labelBackgroundColor=default;endArrow=none;endFill=0;entryX=0;entryY=1;entryDx=0;entryDy=0;" parent="1" source="8vloyq_Telz0-nq0sPVS-11" target="8vloyq_Telz0-nq0sPVS-10" edge="1">
          <mxGeometry relative="1" as="geometry">
            <mxPoint x="180" y="970" as="targetPoint" />
          </mxGeometry>
        </mxCell>
        <mxCell id="8vloyq_Telz0-nq0sPVS-11" value="image_id" style="ellipse;whiteSpace=wrap;html=1;align=center;fontStyle=4;fontFamily=Helvetica;fontSize=12;fontColor=default;labelBackgroundColor=default;" parent="1" vertex="1">
          <mxGeometry x="60" y="1000" width="100" height="40" as="geometry" />
        </mxCell>
        <mxCell id="8vloyq_Telz0-nq0sPVS-14" style="edgeStyle=none;shape=connector;rounded=0;orthogonalLoop=1;jettySize=auto;html=1;exitX=0;exitY=0;exitDx=0;exitDy=0;entryX=1;entryY=1;entryDx=0;entryDy=0;strokeColor=default;align=center;verticalAlign=middle;fontFamily=Helvetica;fontSize=12;fontColor=default;labelBackgroundColor=default;endArrow=none;endFill=0;" parent="1" source="8vloyq_Telz0-nq0sPVS-13" target="8vloyq_Telz0-nq0sPVS-10" edge="1">
          <mxGeometry relative="1" as="geometry" />
        </mxCell>
        <mxCell id="8vloyq_Telz0-nq0sPVS-13" value="path" style="ellipse;whiteSpace=wrap;html=1;align=center;fontFamily=Helvetica;fontSize=12;fontColor=default;labelBackgroundColor=default;" parent="1" vertex="1">
          <mxGeometry x="310" y="1000" width="100" height="40" as="geometry" />
        </mxCell>
        <mxCell id="8vloyq_Telz0-nq0sPVS-16" style="edgeStyle=none;shape=connector;rounded=0;orthogonalLoop=1;jettySize=auto;html=1;exitX=1;exitY=0.5;exitDx=0;exitDy=0;entryX=0;entryY=0.5;entryDx=0;entryDy=0;strokeColor=default;align=center;verticalAlign=middle;fontFamily=Helvetica;fontSize=12;fontColor=default;labelBackgroundColor=default;endArrow=none;endFill=0;" parent="1" source="8vloyq_Telz0-nq0sPVS-15" target="8vloyq_Telz0-nq0sPVS-10" edge="1">
          <mxGeometry relative="1" as="geometry" />
        </mxCell>
        <mxCell id="8vloyq_Telz0-nq0sPVS-15" value="date" style="ellipse;whiteSpace=wrap;html=1;align=center;fontFamily=Helvetica;fontSize=12;fontColor=default;labelBackgroundColor=default;" parent="1" vertex="1">
          <mxGeometry x="20" y="920" width="100" height="40" as="geometry" />
        </mxCell>
        <mxCell id="8vloyq_Telz0-nq0sPVS-17" value="users" style="whiteSpace=wrap;html=1;align=center;fontFamily=Helvetica;fontSize=12;fontColor=default;labelBackgroundColor=default;" parent="1" vertex="1">
          <mxGeometry x="1020" y="920" width="100" height="40" as="geometry" />
        </mxCell>
        <mxCell id="8vloyq_Telz0-nq0sPVS-18" value="observations" style="whiteSpace=wrap;html=1;align=center;fontFamily=Helvetica;fontSize=12;fontColor=default;labelBackgroundColor=default;" parent="1" vertex="1">
          <mxGeometry x="680" y="700" width="100" height="40" as="geometry" />
        </mxCell>
        <mxCell id="8vloyq_Telz0-nq0sPVS-19" value="&lt;div style=&quot;font-size: 12px;&quot;&gt;spaces&lt;/div&gt;" style="whiteSpace=wrap;html=1;align=center;fontFamily=Helvetica;fontSize=12;fontColor=default;labelBackgroundColor=default;" parent="1" vertex="1">
          <mxGeometry x="1020" y="470" width="100" height="40" as="geometry" />
        </mxCell>
        <mxCell id="8vloyq_Telz0-nq0sPVS-27" style="edgeStyle=none;shape=connector;rounded=0;orthogonalLoop=1;jettySize=auto;html=1;exitX=0;exitY=0.5;exitDx=0;exitDy=0;entryX=1;entryY=0;entryDx=0;entryDy=0;strokeColor=default;align=center;verticalAlign=middle;fontFamily=Helvetica;fontSize=12;fontColor=default;labelBackgroundColor=default;endArrow=none;endFill=0;" parent="1" source="8vloyq_Telz0-nq0sPVS-22" target="8vloyq_Telz0-nq0sPVS-17" edge="1">
          <mxGeometry relative="1" as="geometry" />
        </mxCell>
        <mxCell id="8vloyq_Telz0-nq0sPVS-22" value="name" style="ellipse;whiteSpace=wrap;html=1;align=center;fontFamily=Helvetica;fontSize=12;fontColor=default;labelBackgroundColor=default;" parent="1" vertex="1">
          <mxGeometry x="1150" y="890" width="100" height="40" as="geometry" />
        </mxCell>
        <mxCell id="8vloyq_Telz0-nq0sPVS-25" style="edgeStyle=none;shape=connector;rounded=0;orthogonalLoop=1;jettySize=auto;html=1;exitX=0;exitY=0.5;exitDx=0;exitDy=0;entryX=1;entryY=0;entryDx=0;entryDy=0;strokeColor=default;align=center;verticalAlign=middle;fontFamily=Helvetica;fontSize=12;fontColor=default;labelBackgroundColor=default;endArrow=none;endFill=0;" parent="1" source="8vloyq_Telz0-nq0sPVS-23" target="8vloyq_Telz0-nq0sPVS-22" edge="1">
          <mxGeometry relative="1" as="geometry" />
        </mxCell>
        <mxCell id="8vloyq_Telz0-nq0sPVS-23" value="first_name" style="ellipse;whiteSpace=wrap;html=1;align=center;fontFamily=Helvetica;fontSize=12;fontColor=default;labelBackgroundColor=default;" parent="1" vertex="1">
          <mxGeometry x="1270" y="850" width="100" height="40" as="geometry" />
        </mxCell>
        <mxCell id="8vloyq_Telz0-nq0sPVS-26" style="edgeStyle=none;shape=connector;rounded=0;orthogonalLoop=1;jettySize=auto;html=1;exitX=0;exitY=0.5;exitDx=0;exitDy=0;entryX=1;entryY=1;entryDx=0;entryDy=0;strokeColor=default;align=center;verticalAlign=middle;fontFamily=Helvetica;fontSize=12;fontColor=default;labelBackgroundColor=default;endArrow=none;endFill=0;" parent="1" source="8vloyq_Telz0-nq0sPVS-24" target="8vloyq_Telz0-nq0sPVS-22" edge="1">
          <mxGeometry relative="1" as="geometry" />
        </mxCell>
        <mxCell id="8vloyq_Telz0-nq0sPVS-24" value="last_name" style="ellipse;whiteSpace=wrap;html=1;align=center;fontFamily=Helvetica;fontSize=12;fontColor=default;labelBackgroundColor=default;" parent="1" vertex="1">
          <mxGeometry x="1270" y="930" width="100" height="40" as="geometry" />
        </mxCell>
        <mxCell id="8vloyq_Telz0-nq0sPVS-29" style="edgeStyle=none;shape=connector;rounded=0;orthogonalLoop=1;jettySize=auto;html=1;exitX=0;exitY=0;exitDx=0;exitDy=0;entryX=1;entryY=1;entryDx=0;entryDy=0;strokeColor=default;align=center;verticalAlign=middle;fontFamily=Helvetica;fontSize=11;fontColor=default;labelBackgroundColor=default;endArrow=none;endFill=0;" parent="1" source="8vloyq_Telz0-nq0sPVS-28" target="8vloyq_Telz0-nq0sPVS-17" edge="1">
          <mxGeometry relative="1" as="geometry" />
        </mxCell>
        <mxCell id="8vloyq_Telz0-nq0sPVS-28" value="username" style="ellipse;whiteSpace=wrap;html=1;align=center;fontStyle=4;fontFamily=Helvetica;fontSize=11;fontColor=default;labelBackgroundColor=default;" parent="1" vertex="1">
          <mxGeometry x="1150" y="990" width="100" height="40" as="geometry" />
        </mxCell>
        <mxCell id="8vloyq_Telz0-nq0sPVS-31" style="edgeStyle=none;shape=connector;rounded=0;orthogonalLoop=1;jettySize=auto;html=1;exitX=0.5;exitY=0;exitDx=0;exitDy=0;entryX=0.25;entryY=1;entryDx=0;entryDy=0;strokeColor=default;align=center;verticalAlign=middle;fontFamily=Helvetica;fontSize=11;fontColor=default;labelBackgroundColor=default;endArrow=none;endFill=0;" parent="1" source="8vloyq_Telz0-nq0sPVS-30" target="8vloyq_Telz0-nq0sPVS-1" edge="1">
          <mxGeometry relative="1" as="geometry" />
        </mxCell>
        <mxCell id="8vloyq_Telz0-nq0sPVS-30" value="common_names" style="ellipse;shape=doubleEllipse;margin=3;whiteSpace=wrap;html=1;align=center;fontFamily=Helvetica;fontSize=11;fontColor=default;labelBackgroundColor=default;" parent="1" vertex="1">
          <mxGeometry x="90" y="580" width="100" height="40" as="geometry" />
        </mxCell>
        <mxCell id="8vloyq_Telz0-nq0sPVS-33" style="edgeStyle=none;shape=connector;rounded=0;orthogonalLoop=1;jettySize=auto;html=1;exitX=1;exitY=0.5;exitDx=0;exitDy=0;strokeColor=default;align=center;verticalAlign=middle;fontFamily=Helvetica;fontSize=11;fontColor=default;labelBackgroundColor=default;endArrow=none;endFill=0;entryX=0;entryY=0.25;entryDx=0;entryDy=0;" parent="1" source="8vloyq_Telz0-nq0sPVS-32" edge="1" target="8vloyq_Telz0-nq0sPVS-1">
          <mxGeometry relative="1" as="geometry">
            <mxPoint x="190" y="460" as="targetPoint" />
          </mxGeometry>
        </mxCell>
        <mxCell id="8vloyq_Telz0-nq0sPVS-32" value="family" style="ellipse;whiteSpace=wrap;html=1;align=center;fontFamily=Helvetica;fontSize=11;fontColor=default;labelBackgroundColor=default;" parent="1" vertex="1">
          <mxGeometry x="20" y="430" width="100" height="40" as="geometry" />
        </mxCell>
        <mxCell id="8vloyq_Telz0-nq0sPVS-37" style="edgeStyle=none;shape=connector;rounded=0;orthogonalLoop=1;jettySize=auto;html=1;exitX=0.5;exitY=1;exitDx=0;exitDy=0;entryX=0.5;entryY=0;entryDx=0;entryDy=0;strokeColor=default;align=center;verticalAlign=middle;fontFamily=Helvetica;fontSize=11;fontColor=default;labelBackgroundColor=default;endArrow=none;endFill=0;" parent="1" source="8vloyq_Telz0-nq0sPVS-34" target="8vloyq_Telz0-nq0sPVS-1" edge="1">
          <mxGeometry relative="1" as="geometry" />
        </mxCell>
        <mxCell id="8vloyq_Telz0-nq0sPVS-34" value="dimensions" style="ellipse;whiteSpace=wrap;html=1;align=center;fontFamily=Helvetica;fontSize=11;fontColor=default;labelBackgroundColor=default;" parent="1" vertex="1">
          <mxGeometry x="210" y="360" width="100" height="40" as="geometry" />
        </mxCell>
        <mxCell id="8vloyq_Telz0-nq0sPVS-35" value="height" style="ellipse;whiteSpace=wrap;html=1;align=center;fontFamily=Helvetica;fontSize=11;fontColor=default;labelBackgroundColor=default;" parent="1" vertex="1">
          <mxGeometry x="120" y="310" width="100" height="40" as="geometry" />
        </mxCell>
        <mxCell id="8vloyq_Telz0-nq0sPVS-39" style="edgeStyle=none;shape=connector;rounded=0;orthogonalLoop=1;jettySize=auto;html=1;exitX=0.5;exitY=1;exitDx=0;exitDy=0;entryX=0.5;entryY=0;entryDx=0;entryDy=0;strokeColor=default;align=center;verticalAlign=middle;fontFamily=Helvetica;fontSize=11;fontColor=default;labelBackgroundColor=default;endArrow=none;endFill=0;" parent="1" source="8vloyq_Telz0-nq0sPVS-36" target="8vloyq_Telz0-nq0sPVS-34" edge="1">
          <mxGeometry relative="1" as="geometry" />
        </mxCell>
        <mxCell id="8vloyq_Telz0-nq0sPVS-36" value="width" style="ellipse;whiteSpace=wrap;html=1;align=center;fontFamily=Helvetica;fontSize=11;fontColor=default;labelBackgroundColor=default;" parent="1" vertex="1">
          <mxGeometry x="220" y="290" width="100" height="40" as="geometry" />
        </mxCell>
        <mxCell id="8vloyq_Telz0-nq0sPVS-38" style="edgeStyle=none;shape=connector;rounded=0;orthogonalLoop=1;jettySize=auto;html=1;exitX=1;exitY=1;exitDx=0;exitDy=0;entryX=0.23;entryY=0.1;entryDx=0;entryDy=0;entryPerimeter=0;strokeColor=default;align=center;verticalAlign=middle;fontFamily=Helvetica;fontSize=11;fontColor=default;labelBackgroundColor=default;endArrow=none;endFill=0;" parent="1" source="8vloyq_Telz0-nq0sPVS-35" target="8vloyq_Telz0-nq0sPVS-34" edge="1">
          <mxGeometry relative="1" as="geometry" />
        </mxCell>
        <mxCell id="8vloyq_Telz0-nq0sPVS-40" value="is a" style="shape=rhombus;perimeter=rhombusPerimeter;whiteSpace=wrap;html=1;align=center;fontFamily=Helvetica;fontSize=11;fontColor=default;labelBackgroundColor=default;" parent="1" vertex="1">
          <mxGeometry x="360" y="450" width="120" height="60" as="geometry" />
        </mxCell>
        <mxCell id="8vloyq_Telz0-nq0sPVS-45" value="" style="endArrow=none;html=1;rounded=0;strokeColor=default;align=center;verticalAlign=middle;fontFamily=Helvetica;fontSize=11;fontColor=default;labelBackgroundColor=default;entryX=1;entryY=0.5;entryDx=0;entryDy=0;exitX=0;exitY=0.5;exitDx=0;exitDy=0;" parent="1" source="8vloyq_Telz0-nq0sPVS-2" target="8vloyq_Telz0-nq0sPVS-40" edge="1">
          <mxGeometry relative="1" as="geometry">
            <mxPoint x="340" y="620" as="sourcePoint" />
            <mxPoint x="500" y="620" as="targetPoint" />
          </mxGeometry>
        </mxCell>
        <mxCell id="8vloyq_Telz0-nq0sPVS-46" value="N" style="resizable=0;html=1;whiteSpace=wrap;align=right;verticalAlign=bottom;fontFamily=Helvetica;fontSize=11;fontColor=default;labelBackgroundColor=default;" parent="8vloyq_Telz0-nq0sPVS-45" connectable="0" vertex="1">
          <mxGeometry x="1" relative="1" as="geometry" />
        </mxCell>
        <mxCell id="8vloyq_Telz0-nq0sPVS-47" value="" style="endArrow=none;html=1;rounded=0;dashed=1;dashPattern=1 2;strokeColor=default;align=center;verticalAlign=middle;fontFamily=Helvetica;fontSize=11;fontColor=default;labelBackgroundColor=default;entryX=0;entryY=0.5;entryDx=0;entryDy=0;exitX=1;exitY=0.5;exitDx=0;exitDy=0;" parent="1" source="8vloyq_Telz0-nq0sPVS-1" target="8vloyq_Telz0-nq0sPVS-40" edge="1">
          <mxGeometry relative="1" as="geometry">
            <mxPoint x="320" y="620" as="sourcePoint" />
            <mxPoint x="480" y="620" as="targetPoint" />
          </mxGeometry>
        </mxCell>
        <mxCell id="8vloyq_Telz0-nq0sPVS-48" value="1" style="resizable=0;html=1;whiteSpace=wrap;align=right;verticalAlign=bottom;fontFamily=Helvetica;fontSize=11;fontColor=default;labelBackgroundColor=default;" parent="8vloyq_Telz0-nq0sPVS-47" connectable="0" vertex="1">
          <mxGeometry x="1" relative="1" as="geometry" />
        </mxCell>
        <mxCell id="8vloyq_Telz0-nq0sPVS-50" style="edgeStyle=none;shape=connector;rounded=0;orthogonalLoop=1;jettySize=auto;html=1;exitX=1;exitY=1;exitDx=0;exitDy=0;entryX=0;entryY=0;entryDx=0;entryDy=0;strokeColor=default;align=center;verticalAlign=middle;fontFamily=Helvetica;fontSize=11;fontColor=default;labelBackgroundColor=default;endArrow=none;endFill=0;" parent="1" source="8vloyq_Telz0-nq0sPVS-49" target="8vloyq_Telz0-nq0sPVS-2" edge="1">
          <mxGeometry relative="1" as="geometry" />
        </mxCell>
        <mxCell id="8vloyq_Telz0-nq0sPVS-49" value="name" style="ellipse;whiteSpace=wrap;html=1;align=center;fontFamily=Helvetica;fontSize=11;fontColor=default;labelBackgroundColor=default;" parent="1" vertex="1">
          <mxGeometry x="430" y="380" width="100" height="40" as="geometry" />
        </mxCell>
        <mxCell id="8vloyq_Telz0-nq0sPVS-55" style="edgeStyle=none;shape=connector;rounded=0;orthogonalLoop=1;jettySize=auto;html=1;exitX=0.5;exitY=1;exitDx=0;exitDy=0;entryX=0.25;entryY=0;entryDx=0;entryDy=0;strokeColor=default;align=center;verticalAlign=middle;fontFamily=Helvetica;fontSize=11;fontColor=default;labelBackgroundColor=default;endArrow=none;endFill=0;" parent="1" source="8vloyq_Telz0-nq0sPVS-51" target="8vloyq_Telz0-nq0sPVS-2" edge="1">
          <mxGeometry relative="1" as="geometry" />
        </mxCell>
        <mxCell id="8vloyq_Telz0-nq0sPVS-51" value="date_planted" style="ellipse;whiteSpace=wrap;html=1;align=center;fontFamily=Helvetica;fontSize=11;fontColor=default;labelBackgroundColor=default;" parent="1" vertex="1">
          <mxGeometry x="490" y="330" width="100" height="40" as="geometry" />
        </mxCell>
        <mxCell id="8vloyq_Telz0-nq0sPVS-54" style="edgeStyle=none;shape=connector;rounded=0;orthogonalLoop=1;jettySize=auto;html=1;exitX=0.5;exitY=0;exitDx=0;exitDy=0;entryX=0.75;entryY=1;entryDx=0;entryDy=0;strokeColor=default;align=center;verticalAlign=middle;fontFamily=Helvetica;fontSize=11;fontColor=default;labelBackgroundColor=default;endArrow=none;endFill=0;" parent="1" source="8vloyq_Telz0-nq0sPVS-53" target="8vloyq_Telz0-nq0sPVS-1" edge="1">
          <mxGeometry relative="1" as="geometry" />
        </mxCell>
        <mxCell id="8vloyq_Telz0-nq0sPVS-53" value="soil_types" style="ellipse;shape=doubleEllipse;margin=3;whiteSpace=wrap;html=1;align=center;fontFamily=Helvetica;fontSize=11;fontColor=default;labelBackgroundColor=default;" parent="1" vertex="1">
          <mxGeometry x="260" y="590" width="100" height="40" as="geometry" />
        </mxCell>
        <mxCell id="8vloyq_Telz0-nq0sPVS-59" style="edgeStyle=none;shape=connector;rounded=0;orthogonalLoop=1;jettySize=auto;html=1;exitX=0;exitY=0;exitDx=0;exitDy=0;entryX=0.5;entryY=1;entryDx=0;entryDy=0;strokeColor=default;align=center;verticalAlign=middle;fontFamily=Helvetica;fontSize=11;fontColor=default;labelBackgroundColor=default;endArrow=none;endFill=0;" parent="1" source="8vloyq_Telz0-nq0sPVS-56" target="8vloyq_Telz0-nq0sPVS-57" edge="1">
          <mxGeometry relative="1" as="geometry" />
        </mxCell>
        <mxCell id="8vloyq_Telz0-nq0sPVS-60" style="edgeStyle=none;shape=connector;rounded=0;orthogonalLoop=1;jettySize=auto;html=1;exitX=1;exitY=0;exitDx=0;exitDy=0;entryX=0.5;entryY=1;entryDx=0;entryDy=0;strokeColor=default;align=center;verticalAlign=middle;fontFamily=Helvetica;fontSize=11;fontColor=default;labelBackgroundColor=default;endArrow=none;endFill=0;" parent="1" source="8vloyq_Telz0-nq0sPVS-56" target="8vloyq_Telz0-nq0sPVS-58" edge="1">
          <mxGeometry relative="1" as="geometry" />
        </mxCell>
        <mxCell id="8vloyq_Telz0-nq0sPVS-56" value="dimensions" style="ellipse;whiteSpace=wrap;html=1;align=center;fontFamily=Helvetica;fontSize=11;fontColor=default;labelBackgroundColor=default;" parent="1" vertex="1">
          <mxGeometry x="570" y="280" width="100" height="40" as="geometry" />
        </mxCell>
        <mxCell id="8vloyq_Telz0-nq0sPVS-57" value="height" style="ellipse;whiteSpace=wrap;html=1;align=center;fontFamily=Helvetica;fontSize=11;fontColor=default;labelBackgroundColor=default;" parent="1" vertex="1">
          <mxGeometry x="510" y="220" width="100" height="40" as="geometry" />
        </mxCell>
        <mxCell id="8vloyq_Telz0-nq0sPVS-58" value="width" style="ellipse;whiteSpace=wrap;html=1;align=center;fontFamily=Helvetica;fontSize=11;fontColor=default;labelBackgroundColor=default;" parent="1" vertex="1">
          <mxGeometry x="630" y="220" width="100" height="40" as="geometry" />
        </mxCell>
        <mxCell id="8vloyq_Telz0-nq0sPVS-61" style="edgeStyle=none;shape=connector;rounded=0;orthogonalLoop=1;jettySize=auto;html=1;exitX=0.5;exitY=0;exitDx=0;exitDy=0;entryX=0.44;entryY=1;entryDx=0;entryDy=0;entryPerimeter=0;strokeColor=default;align=center;verticalAlign=middle;fontFamily=Helvetica;fontSize=11;fontColor=default;labelBackgroundColor=default;endArrow=none;endFill=0;" parent="1" source="8vloyq_Telz0-nq0sPVS-2" target="8vloyq_Telz0-nq0sPVS-56" edge="1">
          <mxGeometry relative="1" as="geometry" />
        </mxCell>
        <mxCell id="8vloyq_Telz0-nq0sPVS-62" value="has a" style="shape=rhombus;perimeter=rhombusPerimeter;whiteSpace=wrap;html=1;align=center;fontFamily=Helvetica;fontSize=11;fontColor=default;labelBackgroundColor=default;" parent="1" vertex="1">
          <mxGeometry x="170" y="690" width="120" height="60" as="geometry" />
        </mxCell>
        <mxCell id="8vloyq_Telz0-nq0sPVS-65" value="" style="endArrow=none;html=1;rounded=0;strokeColor=default;align=center;verticalAlign=middle;fontFamily=Helvetica;fontSize=11;fontColor=default;labelBackgroundColor=default;entryX=0.5;entryY=0;entryDx=0;entryDy=0;exitX=0.5;exitY=1;exitDx=0;exitDy=0;" parent="1" source="8vloyq_Telz0-nq0sPVS-1" target="8vloyq_Telz0-nq0sPVS-62" edge="1">
          <mxGeometry relative="1" as="geometry">
            <mxPoint x="520" y="630" as="sourcePoint" />
            <mxPoint x="680" y="630" as="targetPoint" />
          </mxGeometry>
        </mxCell>
        <mxCell id="8vloyq_Telz0-nq0sPVS-66" value="1" style="resizable=0;html=1;whiteSpace=wrap;align=right;verticalAlign=bottom;fontFamily=Helvetica;fontSize=11;fontColor=default;labelBackgroundColor=default;" parent="8vloyq_Telz0-nq0sPVS-65" connectable="0" vertex="1">
          <mxGeometry x="1" relative="1" as="geometry" />
        </mxCell>
        <mxCell id="8vloyq_Telz0-nq0sPVS-67" value="" style="endArrow=none;html=1;rounded=0;dashed=1;dashPattern=1 2;strokeColor=default;align=center;verticalAlign=middle;fontFamily=Helvetica;fontSize=11;fontColor=default;labelBackgroundColor=default;entryX=0.5;entryY=1;entryDx=0;entryDy=0;exitX=0.5;exitY=0;exitDx=0;exitDy=0;" parent="1" source="8vloyq_Telz0-nq0sPVS-10" target="8vloyq_Telz0-nq0sPVS-62" edge="1">
          <mxGeometry relative="1" as="geometry">
            <mxPoint x="520" y="630" as="sourcePoint" />
            <mxPoint x="680" y="630" as="targetPoint" />
          </mxGeometry>
        </mxCell>
        <mxCell id="8vloyq_Telz0-nq0sPVS-68" value="1" style="resizable=0;html=1;whiteSpace=wrap;align=right;verticalAlign=bottom;fontFamily=Helvetica;fontSize=11;fontColor=default;labelBackgroundColor=default;" parent="8vloyq_Telz0-nq0sPVS-67" connectable="0" vertex="1">
          <mxGeometry x="1" relative="1" as="geometry" />
        </mxCell>
        <mxCell id="8vloyq_Telz0-nq0sPVS-69" value="uploaded_by" style="shape=rhombus;perimeter=rhombusPerimeter;whiteSpace=wrap;html=1;align=center;fontFamily=Helvetica;fontSize=11;fontColor=default;labelBackgroundColor=default;" parent="1" vertex="1">
          <mxGeometry x="500" y="910" width="120" height="60" as="geometry" />
        </mxCell>
        <mxCell id="8vloyq_Telz0-nq0sPVS-70" value="" style="endArrow=none;html=1;rounded=0;strokeColor=default;align=center;verticalAlign=middle;fontFamily=Helvetica;fontSize=11;fontColor=default;labelBackgroundColor=default;entryX=0;entryY=0.5;entryDx=0;entryDy=0;exitX=1;exitY=0.5;exitDx=0;exitDy=0;" parent="1" source="8vloyq_Telz0-nq0sPVS-10" target="8vloyq_Telz0-nq0sPVS-69" edge="1">
          <mxGeometry relative="1" as="geometry">
            <mxPoint x="520" y="630" as="sourcePoint" />
            <mxPoint x="680" y="630" as="targetPoint" />
          </mxGeometry>
        </mxCell>
        <mxCell id="8vloyq_Telz0-nq0sPVS-71" value="N" style="resizable=0;html=1;whiteSpace=wrap;align=right;verticalAlign=bottom;fontFamily=Helvetica;fontSize=11;fontColor=default;labelBackgroundColor=default;" parent="8vloyq_Telz0-nq0sPVS-70" connectable="0" vertex="1">
          <mxGeometry x="1" relative="1" as="geometry" />
        </mxCell>
        <mxCell id="8vloyq_Telz0-nq0sPVS-72" value="" style="endArrow=none;html=1;rounded=0;dashed=1;dashPattern=1 2;strokeColor=default;align=center;verticalAlign=middle;fontFamily=Helvetica;fontSize=11;fontColor=default;labelBackgroundColor=default;entryX=1;entryY=0.5;entryDx=0;entryDy=0;exitX=0;exitY=0.5;exitDx=0;exitDy=0;" parent="1" source="8vloyq_Telz0-nq0sPVS-17" target="8vloyq_Telz0-nq0sPVS-69" edge="1">
          <mxGeometry relative="1" as="geometry">
            <mxPoint x="520" y="630" as="sourcePoint" />
            <mxPoint x="680" y="630" as="targetPoint" />
          </mxGeometry>
        </mxCell>
        <mxCell id="8vloyq_Telz0-nq0sPVS-73" value="1" style="resizable=0;html=1;whiteSpace=wrap;align=right;verticalAlign=bottom;fontFamily=Helvetica;fontSize=11;fontColor=default;labelBackgroundColor=default;" parent="8vloyq_Telz0-nq0sPVS-72" connectable="0" vertex="1">
          <mxGeometry x="1" relative="1" as="geometry" />
        </mxCell>
        <mxCell id="GQBnyUPq5ZIcI_zQH5y9-2" style="rounded=0;orthogonalLoop=1;jettySize=auto;html=1;exitX=0.5;exitY=0;exitDx=0;exitDy=0;entryX=0.5;entryY=1;entryDx=0;entryDy=0;endArrow=none;endFill=0;" edge="1" parent="1" source="GQBnyUPq5ZIcI_zQH5y9-1" target="8vloyq_Telz0-nq0sPVS-17">
          <mxGeometry relative="1" as="geometry" />
        </mxCell>
        <mxCell id="GQBnyUPq5ZIcI_zQH5y9-1" value="password" style="ellipse;whiteSpace=wrap;html=1;align=center;" vertex="1" parent="1">
          <mxGeometry x="1020" y="990" width="100" height="40" as="geometry" />
        </mxCell>
        <mxCell id="GQBnyUPq5ZIcI_zQH5y9-4" value="have" style="shape=rhombus;perimeter=rhombusPerimeter;whiteSpace=wrap;html=1;align=center;" vertex="1" parent="1">
          <mxGeometry x="365" y="690" width="120" height="60" as="geometry" />
        </mxCell>
        <mxCell id="GQBnyUPq5ZIcI_zQH5y9-12" value="source" style="ellipse;whiteSpace=wrap;html=1;align=center;fontFamily=Helvetica;fontSize=11;fontColor=default;labelBackgroundColor=default;" vertex="1" parent="1">
          <mxGeometry x="620" y="330" width="100" height="40" as="geometry" />
        </mxCell>
        <mxCell id="GQBnyUPq5ZIcI_zQH5y9-14" value="have" style="shape=rhombus;perimeter=rhombusPerimeter;whiteSpace=wrap;html=1;align=center;fontFamily=Helvetica;fontSize=11;fontColor=default;labelBackgroundColor=default;" vertex="1" parent="1">
          <mxGeometry x="490" y="780" width="120" height="60" as="geometry" />
        </mxCell>
        <mxCell id="GQBnyUPq5ZIcI_zQH5y9-15" value="" style="endArrow=none;html=1;rounded=0;dashed=1;dashPattern=1 2;strokeColor=default;align=center;verticalAlign=middle;fontFamily=Helvetica;fontSize=11;fontColor=default;labelBackgroundColor=default;edgeStyle=none;entryX=0.383;entryY=0.85;entryDx=0;entryDy=0;exitX=0.75;exitY=0;exitDx=0;exitDy=0;entryPerimeter=0;" edge="1" parent="1" source="8vloyq_Telz0-nq0sPVS-10" target="GQBnyUPq5ZIcI_zQH5y9-4">
          <mxGeometry relative="1" as="geometry">
            <mxPoint x="420" y="620" as="sourcePoint" />
            <mxPoint x="580" y="620" as="targetPoint" />
          </mxGeometry>
        </mxCell>
        <mxCell id="GQBnyUPq5ZIcI_zQH5y9-16" value="N" style="resizable=0;html=1;whiteSpace=wrap;align=right;verticalAlign=bottom;fontFamily=Helvetica;fontSize=11;fontColor=default;labelBackgroundColor=default;" connectable="0" vertex="1" parent="GQBnyUPq5ZIcI_zQH5y9-15">
          <mxGeometry x="1" relative="1" as="geometry" />
        </mxCell>
        <mxCell id="GQBnyUPq5ZIcI_zQH5y9-17" value="" style="endArrow=none;html=1;rounded=0;strokeColor=default;align=center;verticalAlign=middle;fontFamily=Helvetica;fontSize=11;fontColor=default;labelBackgroundColor=default;edgeStyle=none;entryX=0.658;entryY=0.167;entryDx=0;entryDy=0;entryPerimeter=0;exitX=0.5;exitY=1;exitDx=0;exitDy=0;" edge="1" parent="1" source="8vloyq_Telz0-nq0sPVS-2" target="GQBnyUPq5ZIcI_zQH5y9-4">
          <mxGeometry relative="1" as="geometry">
            <mxPoint x="420" y="620" as="sourcePoint" />
            <mxPoint x="580" y="620" as="targetPoint" />
          </mxGeometry>
        </mxCell>
        <mxCell id="GQBnyUPq5ZIcI_zQH5y9-18" value="1" style="resizable=0;html=1;whiteSpace=wrap;align=right;verticalAlign=bottom;fontFamily=Helvetica;fontSize=11;fontColor=default;labelBackgroundColor=default;" connectable="0" vertex="1" parent="GQBnyUPq5ZIcI_zQH5y9-17">
          <mxGeometry x="1" relative="1" as="geometry" />
        </mxCell>
        <mxCell id="GQBnyUPq5ZIcI_zQH5y9-19" value="" style="endArrow=none;html=1;rounded=0;dashed=1;dashPattern=1 2;strokeColor=default;align=center;verticalAlign=middle;fontFamily=Helvetica;fontSize=11;fontColor=default;labelBackgroundColor=default;edgeStyle=none;entryX=0.325;entryY=0.783;entryDx=0;entryDy=0;exitX=1;exitY=0;exitDx=0;exitDy=0;entryPerimeter=0;" edge="1" parent="1" source="8vloyq_Telz0-nq0sPVS-10" target="GQBnyUPq5ZIcI_zQH5y9-14">
          <mxGeometry relative="1" as="geometry">
            <mxPoint x="265" y="930" as="sourcePoint" />
            <mxPoint x="421" y="751" as="targetPoint" />
          </mxGeometry>
        </mxCell>
        <mxCell id="GQBnyUPq5ZIcI_zQH5y9-20" value="N" style="resizable=0;html=1;whiteSpace=wrap;align=right;verticalAlign=bottom;fontFamily=Helvetica;fontSize=11;fontColor=default;labelBackgroundColor=default;" connectable="0" vertex="1" parent="GQBnyUPq5ZIcI_zQH5y9-19">
          <mxGeometry x="1" relative="1" as="geometry" />
        </mxCell>
        <mxCell id="GQBnyUPq5ZIcI_zQH5y9-21" value="" style="endArrow=none;html=1;rounded=0;dashed=1;dashPattern=1 2;strokeColor=default;align=center;verticalAlign=middle;fontFamily=Helvetica;fontSize=11;fontColor=default;labelBackgroundColor=default;edgeStyle=none;entryX=1;entryY=0;entryDx=0;entryDy=0;exitX=0;exitY=1;exitDx=0;exitDy=0;" edge="1" parent="1" source="8vloyq_Telz0-nq0sPVS-18" target="GQBnyUPq5ZIcI_zQH5y9-14">
          <mxGeometry relative="1" as="geometry">
            <mxPoint x="420" y="620" as="sourcePoint" />
            <mxPoint x="580" y="620" as="targetPoint" />
          </mxGeometry>
        </mxCell>
        <mxCell id="GQBnyUPq5ZIcI_zQH5y9-22" value="1" style="resizable=0;html=1;whiteSpace=wrap;align=right;verticalAlign=bottom;fontFamily=Helvetica;fontSize=11;fontColor=default;labelBackgroundColor=default;" connectable="0" vertex="1" parent="GQBnyUPq5ZIcI_zQH5y9-21">
          <mxGeometry x="1" relative="1" as="geometry" />
        </mxCell>
        <mxCell id="GQBnyUPq5ZIcI_zQH5y9-23" value="have_permissions" style="shape=rhombus;perimeter=rhombusPerimeter;whiteSpace=wrap;html=1;align=center;fontFamily=Helvetica;fontSize=11;fontColor=default;labelBackgroundColor=default;" vertex="1" parent="1">
          <mxGeometry x="1010" y="680" width="120" height="60" as="geometry" />
        </mxCell>
        <mxCell id="GQBnyUPq5ZIcI_zQH5y9-27" value="" style="endArrow=none;html=1;rounded=0;strokeColor=default;align=center;verticalAlign=middle;fontFamily=Helvetica;fontSize=11;fontColor=default;labelBackgroundColor=default;edgeStyle=none;entryX=0.5;entryY=1;entryDx=0;entryDy=0;exitX=0.5;exitY=0;exitDx=0;exitDy=0;" edge="1" parent="1" source="8vloyq_Telz0-nq0sPVS-17" target="GQBnyUPq5ZIcI_zQH5y9-23">
          <mxGeometry relative="1" as="geometry">
            <mxPoint x="590" y="620" as="sourcePoint" />
            <mxPoint x="750" y="620" as="targetPoint" />
          </mxGeometry>
        </mxCell>
        <mxCell id="GQBnyUPq5ZIcI_zQH5y9-28" value="N" style="resizable=0;html=1;whiteSpace=wrap;align=right;verticalAlign=bottom;fontFamily=Helvetica;fontSize=11;fontColor=default;labelBackgroundColor=default;" connectable="0" vertex="1" parent="GQBnyUPq5ZIcI_zQH5y9-27">
          <mxGeometry x="1" relative="1" as="geometry" />
        </mxCell>
        <mxCell id="GQBnyUPq5ZIcI_zQH5y9-29" value="" style="endArrow=none;html=1;rounded=0;strokeColor=default;align=center;verticalAlign=middle;fontFamily=Helvetica;fontSize=11;fontColor=default;labelBackgroundColor=default;edgeStyle=none;entryX=0.5;entryY=0;entryDx=0;entryDy=0;exitX=0.5;exitY=1;exitDx=0;exitDy=0;" edge="1" parent="1" source="8vloyq_Telz0-nq0sPVS-19" target="GQBnyUPq5ZIcI_zQH5y9-23">
          <mxGeometry relative="1" as="geometry">
            <mxPoint x="590" y="620" as="sourcePoint" />
            <mxPoint x="750" y="620" as="targetPoint" />
          </mxGeometry>
        </mxCell>
        <mxCell id="GQBnyUPq5ZIcI_zQH5y9-30" value="M" style="resizable=0;html=1;whiteSpace=wrap;align=right;verticalAlign=bottom;fontFamily=Helvetica;fontSize=11;fontColor=default;labelBackgroundColor=default;" connectable="0" vertex="1" parent="GQBnyUPq5ZIcI_zQH5y9-29">
          <mxGeometry x="1" relative="1" as="geometry" />
        </mxCell>
        <mxCell id="GQBnyUPq5ZIcI_zQH5y9-32" style="edgeStyle=none;shape=connector;rounded=0;orthogonalLoop=1;jettySize=auto;html=1;exitX=1;exitY=0.5;exitDx=0;exitDy=0;entryX=0;entryY=0;entryDx=0;entryDy=0;strokeColor=default;align=center;verticalAlign=middle;fontFamily=Helvetica;fontSize=11;fontColor=default;labelBackgroundColor=default;endArrow=none;endFill=0;" edge="1" parent="1" source="GQBnyUPq5ZIcI_zQH5y9-33" target="8vloyq_Telz0-nq0sPVS-1">
          <mxGeometry relative="1" as="geometry">
            <mxPoint x="60" y="380" as="sourcePoint" />
          </mxGeometry>
        </mxCell>
        <mxCell id="GQBnyUPq5ZIcI_zQH5y9-33" value="flowering_time" style="ellipse;shape=doubleEllipse;margin=3;whiteSpace=wrap;html=1;align=center;fontFamily=Helvetica;fontSize=11;fontColor=default;labelBackgroundColor=default;" vertex="1" parent="1">
          <mxGeometry x="-50" y="380" width="100" height="40" as="geometry" />
        </mxCell>
        <mxCell id="GQBnyUPq5ZIcI_zQH5y9-34" value="made_by" style="shape=rhombus;perimeter=rhombusPerimeter;whiteSpace=wrap;html=1;align=center;fontFamily=Helvetica;fontSize=11;fontColor=default;labelBackgroundColor=default;" vertex="1" parent="1">
          <mxGeometry x="800" y="810" width="120" height="60" as="geometry" />
        </mxCell>
      </root>
    </mxGraphModel>
  </diagram>
</mxfile>
